<svg width="174" height="102" viewBox="0 0 174 102" fill="none" xmlns="http://www.w3.org/2000/svg">
<path d="M31.5109 50.5534C31.9941 50.5534 32.4674 50.6957 32.8667 50.9657C33.6062 51.4613 33.8724 52.1583 33.8774 53.0073C35.1542 53.9005 36.6579 54.5238 38.275 54.7741V50.6957C35.4747 49.989 33.3942 47.4566 33.3942 44.4579C33.3942 41.4592 35.4747 38.9415 38.275 38.2396V34.1514C33.2414 34.917 29.3812 39.2408 29.3812 44.453C29.3812 46.7302 30.1207 48.8455 31.368 50.5583C31.4173 50.5534 31.4616 50.5534 31.506 50.5534H31.5109Z" fill="#F15B2D"/>
<path d="M47.928 53.5472C47.9329 53.3803 47.9378 53.2085 47.9378 53.0367C47.9378 53.0024 47.9378 52.9631 47.9378 52.9288V34.0336H39.8772V38.0384H43.8853V42.642H39.8772V46.2836H43.8853V50.8871H39.8772V54.8919H43.7374C43.6388 55.4318 43.5106 55.9569 43.3529 56.4673C43.2543 56.752 43.1557 57.0366 43.0374 57.3115C42.4655 58.6758 41.6471 59.9126 40.6216 60.9482C38.7827 62.8377 36.298 64.1039 33.5322 64.3886V54.8036H29.4748V64.4524H27.7937V34.0336H23.7363V64.4524H21.6459C21.9565 63.4659 22.1291 62.4205 22.134 61.3359V61.3113C22.134 57.8464 20.4282 54.779 17.8104 52.8846C20.4233 51.0049 22.134 47.9228 22.134 44.453C22.134 38.701 17.4307 34.0336 11.6429 34.0336H3.57733V52.9239C3.57733 53.1055 3.57733 53.2821 3.58719 53.4539C3.58719 53.5079 3.59212 53.557 3.59705 53.6061C3.60198 53.7189 3.60691 53.8318 3.61184 53.9398C3.61184 53.9594 3.61184 53.9791 3.61184 53.9987C3.6217 54.1165 3.63156 54.2343 3.64142 54.352C3.64142 54.3717 3.64142 54.3913 3.64635 54.4109C3.65128 54.4747 3.66114 54.5385 3.671 54.6023C3.68086 54.6956 3.69072 54.7938 3.70551 54.8919C3.79425 55.579 3.92243 56.2416 4.09006 56.8894C4.73589 59.304 5.95361 61.488 7.58545 63.2941C9.94694 65.9051 13.186 67.7161 16.8293 68.2706C17.5984 68.3884 18.3822 68.4473 19.1809 68.4473H25.7329H32.3342C40.2618 68.4473 46.8236 62.5138 47.8096 54.887C47.8294 54.7545 47.8442 54.6171 47.8589 54.4846C47.8639 54.4158 47.8737 54.3471 47.8787 54.2735C47.8787 54.2441 47.8885 54.2097 47.8885 54.1803C47.8885 54.1459 47.8885 54.1067 47.8935 54.0723C47.9082 53.9054 47.9181 53.7386 47.923 53.5717C47.923 53.5619 47.923 53.5472 47.923 53.5373L47.928 53.5472ZM7.58545 38.0384H11.6429C15.2122 38.0384 18.1209 40.9095 18.1209 44.453C18.1209 47.9964 15.2172 50.8871 11.6429 50.8871H7.58545V38.0384ZM8.78838 58.0133C8.3644 57.1691 8.04888 56.2661 7.84675 55.3238C7.81716 55.1864 7.78758 55.0342 7.76786 54.8968H11.6478C15.2122 54.8968 18.1111 57.7532 18.1209 61.2917V61.3163C18.1209 62.4009 17.8498 63.4217 17.3716 64.3149C13.5952 63.7211 10.4252 61.3064 8.78838 58.0133Z" fill="#F15B2D"/>
<path d="M33.5372 53.2134C33.5421 53.1742 33.5421 52.919 33.5421 52.8748C33.5421 51.7607 32.635 50.8577 31.5109 50.8577C31.3334 50.8577 31.156 50.8822 30.9933 50.9264C30.1256 51.157 29.4847 51.9423 29.4847 52.8797C29.4847 52.9239 29.4847 53.1791 29.4896 53.2183H30.239C30.239 53.2183 30.234 52.9239 30.234 52.8895C30.234 52.7226 30.2636 52.5558 30.3277 52.4036C30.4559 52.0895 30.7123 51.8343 31.0229 51.7018C31.1806 51.638 31.3482 51.6037 31.5159 51.6037C31.5405 51.6037 31.5652 51.6037 31.5898 51.6037C32.2011 51.638 32.6991 52.0944 32.7878 52.6834C32.8125 52.8502 32.8075 53.0416 32.7977 53.2134H33.547H33.5372Z" fill="#F15B2D"/>
<path d="M59.2029 63.8241C59.0896 63.6573 58.9219 63.5297 58.7099 63.4364C58.4979 63.3432 58.2613 63.2941 58.0099 63.2892C57.6796 63.2892 57.4133 63.353 57.2063 63.4855C56.9992 63.618 56.8957 63.7947 56.8957 64.0156C56.8957 64.2266 56.9943 64.3787 57.1964 64.4769C57.3985 64.575 57.6845 64.6487 58.069 64.7026C58.355 64.7419 58.5965 64.791 58.7987 64.845C59.0008 64.899 59.198 64.9824 59.3952 65.0904C59.5924 65.1983 59.7452 65.3456 59.8488 65.5272C59.9523 65.7137 60.0016 65.9345 60.0016 66.1897C60.0016 66.5333 59.903 66.8179 59.7009 67.0486C59.4987 67.2793 59.2572 67.4363 58.9712 67.5296C58.6853 67.6228 58.3599 67.6719 58.0049 67.6719C57.0189 67.6719 56.3287 67.3087 55.9343 66.5823L56.5111 66.1995C56.8217 66.7247 57.3246 66.9897 58.0099 66.9897C58.2219 66.9897 58.4141 66.9652 58.5867 66.921C58.7592 66.8768 58.9121 66.7885 59.0353 66.6658C59.1635 66.5382 59.2227 66.386 59.2227 66.1946C59.2227 65.9541 59.1142 65.7726 58.8973 65.6548C58.6804 65.537 58.3796 65.4535 57.9902 65.4045C57.7683 65.375 57.581 65.3456 57.4232 65.3063C57.2654 65.272 57.0978 65.218 56.9253 65.1493C56.7527 65.0806 56.6097 64.9971 56.5013 64.9039C56.3928 64.8057 56.3041 64.683 56.2351 64.5309C56.166 64.3787 56.1266 64.202 56.1266 64.0057C56.1266 63.7702 56.1808 63.5591 56.2942 63.3775C56.4027 63.1959 56.5506 63.0487 56.733 62.9456C56.9154 62.8426 57.1126 62.7641 57.3246 62.7101C57.5366 62.6561 57.7535 62.6315 57.9852 62.6315C58.843 62.6315 59.4445 62.9015 59.7847 63.4413L59.198 63.834L59.2029 63.8241Z" fill="#F15B2D"/>
<path d="M64.5619 62.7935L62.3532 65.0805L64.7542 67.5148V67.5639H63.7879L61.6384 65.375V67.5639H60.8693V62.7641H61.6384V64.8352L63.6005 62.7641H64.557V62.7935H64.5619Z" fill="#F15B2D"/>
<path d="M65.3359 67.5639V62.7641H66.1001V67.5639H65.3359Z" fill="#F15B2D"/>
<path d="M68.0819 62.7641V66.8474H70.6209V67.559H67.3079V62.7592H68.077L68.0819 62.7641Z" fill="#F15B2D"/>
<path d="M72.1246 62.7641V66.8474H74.6635V67.559H71.3506V62.7592H72.1196L72.1246 62.7641Z" fill="#F15B2D"/>
<path d="M78.2082 63.4561H76.6257V62.7641H80.5648V63.4561H78.9872V67.5639H78.2082V63.4561Z" fill="#F15B2D"/>
<path d="M85.2828 63.4119C85.7118 63.8978 85.9238 64.4916 85.9238 65.1836C85.9238 65.5124 85.8745 65.8266 85.7709 66.121C85.6674 66.4155 85.5195 66.6805 85.3223 66.9112C85.1251 67.1418 84.8687 67.3283 84.5483 67.4609C84.2278 67.5934 83.863 67.6621 83.4587 67.6621C83.0545 67.6621 82.6946 67.5934 82.3692 67.451C82.0487 67.3136 81.7924 67.1271 81.5952 66.8915C81.398 66.6609 81.2501 66.3959 81.1465 66.1063C81.043 65.8167 80.9937 65.5075 80.9937 65.1836C80.9937 64.4524 81.2254 63.8487 81.6889 63.3775C82.1523 62.9064 82.7488 62.6659 83.4735 62.6659C84.2525 62.6659 84.8589 62.9162 85.2828 63.4021V63.4119ZM81.8614 65.8315C81.9304 66.0327 82.029 66.2241 82.1621 66.3909C82.2952 66.5627 82.4727 66.7001 82.6946 66.8032C82.9164 66.9063 83.1679 66.9554 83.4538 66.9554C84.0208 66.9554 84.4447 66.7885 84.7258 66.4498C85.0068 66.1112 85.1547 65.694 85.1547 65.1934C85.1547 64.8842 85.1004 64.5947 84.987 64.3297C84.8737 64.0646 84.6863 63.8389 84.4201 63.6524C84.1588 63.4659 83.8383 63.3726 83.4686 63.3677C82.9263 63.3677 82.5072 63.5346 82.2065 63.8732C81.9058 64.2119 81.7579 64.6487 81.7579 65.1885C81.7579 65.4094 81.7973 65.6204 81.8663 65.8216L81.8614 65.8315Z" fill="#F15B2D"/>
<path d="M88.6649 62.7641C89.0593 62.7641 89.4142 62.8328 89.7298 62.9604C90.0453 63.0929 90.2967 63.2745 90.489 63.5002C90.6812 63.726 90.8242 63.9763 90.9277 64.2511C91.0263 64.526 91.0806 64.8155 91.0855 65.1198C91.0954 65.429 91.051 65.7284 90.9573 66.013C90.8587 66.2977 90.7158 66.5578 90.5284 66.7934C90.3361 67.024 90.0798 67.2105 89.7593 67.3529C89.4389 67.4903 89.0741 67.5639 88.6698 67.5639H86.8457V62.7641H88.6698H88.6649ZM87.6049 66.8228H88.6649C89.217 66.8228 89.6311 66.656 89.9122 66.3173C90.1932 65.9787 90.3263 65.5811 90.3164 65.1149C90.3066 64.8302 90.2474 64.5701 90.1389 64.3346C90.0305 64.099 89.8481 63.8978 89.5917 63.7358C89.3353 63.5738 89.0297 63.4953 88.6649 63.4953H87.6049V66.8179V66.8228Z" fill="#F15B2D"/>
<path d="M95.35 66.5529H92.742L92.2884 67.559H91.47L93.6343 62.7592H94.4724L96.6367 67.559H95.8183L95.3549 66.5529H95.35ZM94.0484 63.5739L93.0279 65.856H95.064L94.0435 63.5739H94.0484Z" fill="#F15B2D"/>
<path d="M99.0475 64.8842L100.418 62.7641H101.345V62.7984L99.4321 65.5959V67.5639H98.663V65.5959L96.8044 62.7984V62.7641H97.7213L99.0525 64.8842H99.0475Z" fill="#F15B2D"/>
<path d="M102.696 67.2891C102.696 67.2891 102.691 67.3234 102.681 67.348C102.676 67.3725 102.666 67.3971 102.656 67.4216C102.646 67.451 102.637 67.4903 102.617 67.5394C102.597 67.5885 102.582 67.6424 102.563 67.6964C102.543 67.7504 102.513 67.824 102.484 67.9173C102.454 68.0154 102.42 68.1136 102.385 68.2118H101.956L102.109 67.559C101.917 67.5247 101.818 67.4069 101.818 67.2155C101.818 67.1173 101.848 67.029 101.907 66.9603C101.966 66.8915 102.04 66.8474 102.129 66.8327C102.218 66.8179 102.301 66.8179 102.385 66.8327C102.469 66.8474 102.543 66.8915 102.602 66.9652C102.661 67.0388 102.691 67.1271 102.691 67.2302C102.691 67.2449 102.691 67.2596 102.691 67.2744L102.696 67.2891Z" fill="#F15B2D"/>
<path d="M106.206 62.7641V66.8474H108.745V67.559H105.432V62.7592H106.201L106.206 62.7641Z" fill="#F15B2D"/>
<path d="M113.039 67.5639H109.479V62.7641H113.019V63.51H110.254V64.8057H112.911V65.5173H110.254V66.8081H113.044V67.5639H113.039Z" fill="#F15B2D"/>
<path d="M117.372 66.5529H114.764L114.311 67.559H113.493L115.657 62.7592H116.495L118.659 67.559H117.841L117.377 66.5529H117.372ZM116.071 63.5739L115.05 65.856H117.087L116.066 63.5739H116.071Z" fill="#F15B2D"/>
<path d="M121.149 62.7641C121.543 62.7641 121.898 62.8328 122.214 62.9604C122.529 63.0929 122.781 63.2745 122.973 63.5002C123.165 63.726 123.308 63.9763 123.412 64.2511C123.51 64.526 123.565 64.8155 123.57 65.1198C123.579 65.429 123.535 65.7284 123.441 66.013C123.343 66.2977 123.2 66.5578 123.012 66.7934C122.82 67.024 122.564 67.2105 122.243 67.3529C121.923 67.4903 121.558 67.5639 121.154 67.5639H119.33V62.7641H121.154H121.149ZM120.089 66.8228H121.149C121.701 66.8228 122.115 66.656 122.396 66.3173C122.677 65.9787 122.81 65.5811 122.8 65.1149C122.791 64.8302 122.731 64.5701 122.623 64.3346C122.515 64.099 122.332 63.8978 122.076 63.7358C121.819 63.5738 121.514 63.4953 121.149 63.4953H120.089V66.8179V66.8228Z" fill="#F15B2D"/>
<path d="M127.302 63.4561H125.719V62.7641H129.658V63.4561H128.081V67.5639H127.302V63.4561Z" fill="#F15B2D"/>
<path d="M134.376 63.4119C134.805 63.8978 135.017 64.4916 135.017 65.1836C135.017 65.5124 134.968 65.8266 134.864 66.121C134.761 66.4155 134.613 66.6805 134.416 66.9112C134.218 67.1418 133.962 67.3283 133.642 67.4609C133.321 67.5934 132.956 67.6621 132.552 67.6621C132.148 67.6621 131.788 67.5934 131.463 67.451C131.142 67.3136 130.886 67.1271 130.689 66.8915C130.491 66.6609 130.343 66.3959 130.24 66.1063C130.136 65.8167 130.087 65.5075 130.087 65.1836C130.087 64.4524 130.319 63.8487 130.782 63.3775C131.246 62.9064 131.842 62.6659 132.567 62.6659C133.346 62.6659 133.952 62.9162 134.376 63.4021V63.4119ZM130.955 65.8315C131.024 66.0327 131.122 66.2241 131.255 66.3909C131.389 66.5627 131.566 66.7001 131.788 66.8032C132.01 66.9063 132.261 66.9554 132.547 66.9554C133.114 66.9554 133.538 66.7885 133.819 66.4498C134.1 66.1112 134.248 65.694 134.248 65.1934C134.248 64.8842 134.194 64.5947 134.08 64.3297C133.967 64.0646 133.78 63.8389 133.513 63.6524C133.252 63.4659 132.932 63.3726 132.562 63.3677C132.02 63.3677 131.601 63.5346 131.3 63.8732C130.999 64.2119 130.851 64.6487 130.851 65.1885C130.851 65.4094 130.891 65.6204 130.96 65.8216L130.955 65.8315Z" fill="#F15B2D"/>
<path d="M140.125 63.888L138.488 66.1554H138.32L136.703 63.888V67.5688H135.934V62.769H136.826L138.419 65.0168L140.001 62.769H140.899V67.5688H140.125V63.888Z" fill="#F15B2D"/>
<path d="M146.105 63.4119C146.534 63.8978 146.746 64.4916 146.746 65.1836C146.746 65.5124 146.696 65.8266 146.593 66.121C146.489 66.4155 146.341 66.6805 146.144 66.9112C145.947 67.1418 145.691 67.3283 145.37 67.4609C145.05 67.5934 144.685 67.6621 144.281 67.6621C143.876 67.6621 143.516 67.5934 143.191 67.451C142.871 67.3136 142.614 67.1271 142.417 66.8915C142.22 66.6609 142.072 66.3959 141.968 66.1063C141.865 65.8167 141.816 65.5075 141.816 65.1836C141.816 64.4524 142.047 63.8487 142.511 63.3775C142.974 62.9064 143.571 62.6659 144.295 62.6659C145.074 62.6659 145.681 62.9162 146.105 63.4021V63.4119ZM142.688 65.8315C142.757 66.0327 142.856 66.2241 142.989 66.3909C143.122 66.5627 143.3 66.7001 143.521 66.8032C143.743 66.9063 143.995 66.9554 144.281 66.9554C144.848 66.9554 145.272 66.7885 145.553 66.4498C145.839 66.1161 145.981 65.694 145.981 65.1934C145.981 64.8842 145.927 64.5947 145.814 64.3297C145.7 64.0646 145.513 63.8389 145.247 63.6524C144.986 63.4659 144.665 63.3726 144.295 63.3677C143.753 63.3677 143.334 63.5346 143.033 63.8732C142.733 64.2119 142.585 64.6487 142.585 65.1885C142.585 65.4094 142.624 65.6204 142.693 65.8216L142.688 65.8315Z" fill="#F15B2D"/>
<path d="M151.824 67.5639H150.921L149.457 65.9051H148.437V67.5639H147.668V62.7592C147.914 62.7592 148.289 62.7592 148.792 62.7592C149.294 62.7592 149.664 62.7592 149.916 62.7592C150.448 62.7592 150.867 62.9113 151.168 63.2205C151.469 63.5297 151.617 63.8978 151.617 64.3297C151.617 64.7076 151.508 65.0364 151.296 65.3112C151.084 65.5861 150.754 65.7578 150.31 65.8216L151.75 67.4167L151.833 67.5541L151.824 67.5639ZM148.437 63.461V65.2033H149.901C150.202 65.2033 150.433 65.1198 150.591 64.9579C150.749 64.7959 150.823 64.5898 150.823 64.3493C150.823 64.1088 150.744 63.9027 150.591 63.7309C150.433 63.5542 150.207 63.4659 149.911 63.4659H148.437V63.461Z" fill="#F15B2D"/>
<path d="M156.793 67.5639H155.891L154.427 65.9051H153.406V67.5639H152.637V62.7592C152.884 62.7592 153.258 62.7592 153.761 62.7592C154.264 62.7592 154.634 62.7592 154.885 62.7592C155.418 62.7592 155.837 62.9113 156.137 63.2205C156.438 63.5297 156.586 63.8978 156.586 64.3297C156.586 64.7076 156.478 65.0364 156.266 65.3112C156.054 65.5861 155.723 65.7578 155.28 65.8216L156.719 67.4167L156.803 67.5541L156.793 67.5639ZM153.401 63.461V65.2033H154.865C155.166 65.2033 155.398 65.1198 155.556 64.9579C155.713 64.7959 155.787 64.5898 155.787 64.3493C155.787 64.1088 155.708 63.9027 155.556 63.7309C155.398 63.5542 155.171 63.4659 154.875 63.4659H153.401V63.461Z" fill="#F15B2D"/>
<path d="M161.595 63.4119C162.024 63.8978 162.236 64.4916 162.236 65.1836C162.236 65.5124 162.187 65.8266 162.083 66.121C161.979 66.4155 161.832 66.6805 161.634 66.9112C161.437 67.1418 161.181 67.3283 160.86 67.4609C160.54 67.5934 160.175 67.6621 159.771 67.6621C159.367 67.6621 159.007 67.5934 158.681 67.451C158.361 67.3136 158.104 67.1271 157.907 66.8915C157.71 66.6609 157.562 66.3959 157.459 66.1063C157.355 65.8167 157.306 65.5075 157.306 65.1836C157.306 64.4524 157.537 63.8487 158.001 63.3775C158.464 62.9064 159.061 62.6659 159.786 62.6659C160.565 62.6659 161.171 62.9162 161.595 63.4021V63.4119ZM158.173 65.8315C158.242 66.0327 158.341 66.2241 158.474 66.3909C158.607 66.5627 158.785 66.7001 159.007 66.8032C159.229 66.9063 159.48 66.9554 159.766 66.9554C160.333 66.9554 160.757 66.7885 161.038 66.4498C161.319 66.1112 161.467 65.694 161.467 65.1934C161.467 64.8842 161.413 64.5947 161.299 64.3297C161.186 64.0646 160.998 63.8389 160.732 63.6524C160.471 63.4659 160.15 63.3726 159.781 63.3677C159.238 63.3677 158.819 63.5346 158.519 63.8732C158.218 64.2119 158.07 64.6487 158.07 65.1885C158.07 65.4094 158.109 65.6204 158.178 65.8216L158.173 65.8315Z" fill="#F15B2D"/>
<path d="M168.098 67.5688H167.417L166.776 65.8756L166.244 64.2659L165.712 65.8854L165.076 67.5737H164.4L162.65 62.769H163.513L164.74 66.4646L165.988 62.769H166.486L167.757 66.4646L168.955 62.769H169.818L168.098 67.5737V67.5688Z" fill="#F15B2D"/>
<path d="M74.4713 48.2712C73.6085 47.1719 72.4647 46.4701 71.0399 46.1707C72.2971 45.7977 73.3078 45.1351 74.067 44.183C74.8262 43.2407 75.2009 42.0383 75.2009 40.6003C75.2009 38.6519 74.4959 37.1108 73.0908 35.9722C71.6759 34.8434 69.7335 34.2741 67.234 34.2741H56.1907V58.6955H67.6185C70.1772 58.6955 72.1739 58.0967 73.6085 56.9041C75.0431 55.7017 75.7629 54.087 75.7629 52.0503C75.7629 50.6319 75.3242 49.3804 74.4713 48.2712ZM62.1708 39.0347H66.0803C67.0565 39.0347 67.8058 39.2507 68.3383 39.6973C68.8559 40.1341 69.1172 40.7721 69.1172 41.6113C69.1172 42.4506 68.8559 43.0689 68.3383 43.5057C67.8058 43.9278 67.0614 44.1487 66.0803 44.1487H62.1708V39.0347ZM68.9003 53.2183C68.3481 53.6649 67.5692 53.8907 66.5684 53.8907H62.1708V48.497H66.4994C67.51 48.497 68.289 48.7473 68.8609 49.2332C69.4328 49.7191 69.7236 50.3914 69.7236 51.2503C69.7236 52.1092 69.4426 52.7619 68.9003 53.2183Z" fill="#004464"/>
<path d="M169.67 39.0347V34.2741H154.644V58.6955H169.67V53.9251H160.614V48.5706H169.67V43.972H160.614V39.0347H169.67Z" fill="#004464"/>
<path d="M57.226 34.2692H56.1907V58.6955H57.226V34.2692Z" fill="#F15B2D"/>
<path d="M155.674 34.2692H154.639V58.6955H155.674V34.2692Z" fill="#F15B2D"/>
<path d="M94.2949 34.2741V48.8798C94.2949 50.3374 93.9203 51.4662 93.1709 52.2564C92.4314 53.0417 91.3616 53.4343 89.9565 53.4343C88.5514 53.4343 87.5013 53.0417 86.7717 52.2564C86.0519 51.4711 85.692 50.3423 85.692 48.8798V34.2741H79.7217V48.8504C79.7217 51.0245 80.1605 52.8797 81.043 54.4011C81.9255 55.9226 83.1333 57.0513 84.6616 57.8072C86.19 58.563 87.9155 58.936 89.853 58.936C91.7905 58.936 93.5456 58.5531 95.1133 57.7973C96.6811 57.0317 97.9432 55.8931 98.8651 54.3815C99.8018 52.8797 100.27 51.0294 100.27 48.8553V34.2741H94.29H94.2949Z" fill="#004464"/>
<path d="M110.337 54.0968V34.2741H104.357V58.6955H118.156V54.0968H110.337Z" fill="#004464"/>
<path d="M122.061 34.2741V58.6955H128.041V34.2741H122.061Z" fill="#004464"/>
<path d="M149.694 38.063C149.018 36.8851 148.008 35.9526 146.657 35.2802C145.306 34.6078 143.65 34.2741 141.687 34.2741H132.005V58.6955H137.985V49.9252H141.687C143.694 49.9252 145.37 49.562 146.721 48.8504C148.072 48.124 149.082 47.1817 149.728 46.0136C150.384 44.8456 150.714 43.5499 150.714 42.1316C150.714 40.6003 150.369 39.2408 149.694 38.063ZM143.783 44.399C143.221 44.929 142.368 45.194 141.234 45.194H137.98V39.0642H141.234C142.368 39.0642 143.221 39.3341 143.783 39.8739C144.345 40.404 144.626 41.1598 144.626 42.1316C144.626 43.1033 144.345 43.8591 143.783 44.399Z" fill="#004464"/>
<path d="M24.0391 63.9622V34.0429H27.4761V63.9622H24.0391Z" fill="#F15B2D" stroke="#F15B2D"/>
</svg>
