<svg width="84" height="84" viewBox="0 0 84 84" fill="none" xmlns="http://www.w3.org/2000/svg">
<path d="M14.9715 52.6237V75.1714H69.0286V17.4285" stroke="white" stroke-width="1.84286" stroke-linecap="round" stroke-linejoin="round"/>
<path fill-rule="evenodd" clip-rule="evenodd" d="M14.9715 52.4428C16.6678 52.4428 18.0429 51.0677 18.0429 49.3714C18.0429 47.6751 16.6678 46.3 14.9715 46.3C13.2751 46.3 11.9 47.6751 11.9 49.3714C11.9 51.0677 13.2751 52.4428 14.9715 52.4428Z" stroke="white" stroke-width="1.84286"/>
<path fill-rule="evenodd" clip-rule="evenodd" d="M69.0285 17.4286C70.7248 17.4286 72.0999 16.0535 72.0999 14.3572C72.0999 12.6609 70.7248 11.2858 69.0285 11.2858C67.3322 11.2858 65.957 12.6609 65.957 14.3572C65.957 16.0535 67.3322 17.4286 69.0285 17.4286Z" stroke="white" stroke-width="1.84286"/>
<path d="M27.9326 35.673H56.0669V61.3501H27.9326V35.673Z" fill="url(#paint0_linear_1_2970)"/>
<path fill-rule="evenodd" clip-rule="evenodd" d="M46.73 23.51H45.3781C45.3781 21.644 43.8655 20.1314 41.9996 20.1314C40.1336 20.1314 38.621 21.644 38.621 23.51H37.27V23.5101H23.2029V66.7558H60.7971V23.5101H46.73V23.51ZM36.5502 20.8073C37.5453 18.8047 39.6117 17.4285 41.9996 17.4285C44.3874 17.4285 46.4538 18.8047 47.4489 20.8073H63.5V69.4587H20.5V20.8073H36.5502ZM30.6355 23.5102H33.3384V28.2402H50.6612V23.5102H53.3641V30.943H30.6355V23.5102Z" fill="#F15B2D"/>
<path fill-rule="evenodd" clip-rule="evenodd" d="M47.1035 41.14L49.3716 43.4081L40.2992 52.4806L40.299 52.4803L40.2989 52.4804L34.6286 46.8102L36.8967 44.5421L40.2991 47.9444L47.1035 41.14Z" fill="#F15B2D"/>
<rect opacity="0.1" x="9.44312" y="33.3999" width="6.14286" height="6.14286" fill="#29BDBF"/>
<rect opacity="0.1" x="35.2431" y="7.59991" width="6.14286" height="6.14286" fill="#29BDBF"/>
<rect opacity="0.4" x="9.44312" y="24.7999" width="6.14286" height="6.14286" fill="#29BDBF"/>
<rect opacity="0.4" x="26.6431" y="7.59991" width="6.14286" height="6.14286" fill="#29BDBF"/>
<rect opacity="0.7" x="9.44312" y="16.1999" width="6.14286" height="6.14286" fill="#29BDBF"/>
<rect opacity="0.7" x="18.0431" y="7.59991" width="6.14286" height="6.14286" fill="#29BDBF"/>
<rect x="9.44299" y="7.60004" width="6.14286" height="6.14286" fill="#29BDBF"/>
<defs>
<linearGradient id="paint0_linear_1_2970" x1="41.9998" y1="35.673" x2="41.9998" y2="61.3501" gradientUnits="userSpaceOnUse">
<stop stop-color="#F15B2D"/>
<stop offset="1" stop-color="#F15B2D" stop-opacity="0"/>
</linearGradient>
</defs>
</svg>
