<svg width="84" height="84" viewBox="0 0 84 84" fill="none" xmlns="http://www.w3.org/2000/svg">
<path d="M34.7713 71.5715H12.4285V12.4286H34.7713" stroke="white" stroke-width="1.97143" stroke-linecap="round" stroke-linejoin="round"/>
<path d="M68.2856 15.7143V67.9572" stroke="white" stroke-width="1.97143" stroke-linecap="round" stroke-linejoin="round"/>
<path fill-rule="evenodd" clip-rule="evenodd" d="M38.0571 74.8572C36.2424 74.8572 34.7713 73.3861 34.7713 71.5715C34.7713 69.7568 36.2424 68.2858 38.0571 68.2858C39.8717 68.2858 41.3428 69.7568 41.3428 71.5715C41.3428 73.3861 39.8717 74.8572 38.0571 74.8572Z" stroke="white" stroke-width="1.97143"/>
<path fill-rule="evenodd" clip-rule="evenodd" d="M38.0571 15.7143C36.2424 15.7143 34.7713 14.2432 34.7713 12.4286C34.7713 10.6139 36.2424 9.14288 38.0571 9.14288C39.8717 9.14288 41.3428 10.6139 41.3428 12.4286C41.3428 14.2432 39.8717 15.7143 38.0571 15.7143Z" stroke="white" stroke-width="1.97143"/>
<path fill-rule="evenodd" clip-rule="evenodd" d="M68.2856 15.7143C66.4709 15.7143 64.9999 14.2432 64.9999 12.4286C64.9999 10.6139 66.4709 9.14288 68.2856 9.14288C70.1002 9.14288 71.5713 10.6139 71.5713 12.4286C71.5713 14.2432 70.1002 15.7143 68.2856 15.7143Z" stroke="white" stroke-width="1.97143"/>
<path fill-rule="evenodd" clip-rule="evenodd" d="M68.2856 74.8572C66.4709 74.8572 64.9999 73.3861 64.9999 71.5715C64.9999 69.7568 66.4709 68.2858 68.2856 68.2858C70.1002 68.2858 71.5713 69.7568 71.5713 71.5715C71.5713 73.3861 70.1002 74.8572 68.2856 74.8572Z" stroke="white" stroke-width="1.97143"/>
<path d="M49.2286 49.8517V63.6857H20.3143V20.3143H49.2286V34.1483" stroke="#F15B2D" stroke-width="2.62857"/>
<path d="M19 19L41.3429 27.1198V73.2143L19 65.0945V19Z" fill="url(#paint0_linear_1_2991)"/>
<rect x="-0.304462" y="-0.304462" width="2.29071" height="13.3093" transform="matrix(0 -1 -1 0 54.8459 42.8511)" fill="#F15B2D" stroke="#F15B2D" stroke-width="0.608923"/>
<path d="M44.618 48.1408L46.2378 46.521L40.1073 40.3904L38.4875 42.0102L44.618 48.1408Z" fill="#F15B2D" stroke="#F15B2D" stroke-width="0.608923"/>
<path d="M44.618 35.859L46.2378 37.4788L40.1073 43.6094L38.4875 41.9896L44.618 35.859Z" fill="#F15B2D" stroke="#F15B2D" stroke-width="0.608923"/>
<rect opacity="0.1" x="54.4857" y="3.22858" width="6.82177" height="6.82177" fill="#29BDBF"/>
<rect opacity="0.4" x="54.4856" y="12.0969" width="6.82177" height="6.82177" fill="#29BDBF"/>
<rect opacity="0.7" x="54.4856" y="20.9652" width="6.82177" height="6.82177" fill="#29BDBF"/>
<rect x="54.4856" y="29.8336" width="6.82177" height="6.82177" fill="#29BDBF"/>
<rect opacity="0.1" width="6.82177" height="6.82177" transform="matrix(1 0 0 -1 54.4857 80.5963)" fill="#29BDBF"/>
<rect opacity="0.4" width="6.82177" height="6.82177" transform="matrix(1 0 0 -1 54.4856 71.7281)" fill="#29BDBF"/>
<rect opacity="0.7" width="6.82177" height="6.82177" transform="matrix(1 0 0 -1 54.4856 62.8597)" fill="#29BDBF"/>
<rect width="6.82177" height="6.82177" transform="matrix(1 0 0 -1 54.4856 53.9913)" fill="#29BDBF"/>
<defs>
<linearGradient id="paint0_linear_1_2991" x1="30.1714" y1="19" x2="30.1714" y2="73.2143" gradientUnits="userSpaceOnUse">
<stop stop-color="#F15B2D"/>
<stop offset="1" stop-color="#F15B2D" stop-opacity="0"/>
</linearGradient>
</defs>
</svg>
