<svg width="19" height="18" viewBox="0 0 19 18" fill="none" xmlns="http://www.w3.org/2000/svg">
<path d="M9.19534 5.34374C9.80723 5.34374 10.4054 5.52519 10.9141 5.86514C11.4229 6.20508 11.8194 6.68826 12.0536 7.25357C12.2878 7.81888 12.349 8.44093 12.2296 9.04106C12.1103 9.64118 11.8156 10.1924 11.383 10.6251C10.9503 11.0578 10.399 11.3524 9.7989 11.4718C9.19877 11.5912 8.57672 11.5299 8.01141 11.2957C7.44611 11.0616 6.96293 10.6651 6.62298 10.1563C6.28304 9.64753 6.10159 9.04938 6.10159 8.4375C6.10159 7.61698 6.42754 6.83007 7.00773 6.24988C7.58792 5.66969 8.37483 5.34374 9.19534 5.34374ZM12.5703 4.49999H13.6953V5.62499C13.6953 5.77418 13.7546 5.91725 13.8601 6.02274C13.9656 6.12823 14.1087 6.1875 14.2578 6.1875C14.407 6.1875 14.5501 6.12823 14.6556 6.02274C14.7611 5.91725 14.8203 5.77418 14.8203 5.62499V4.49999H15.9453C16.0945 4.49999 16.2376 4.44073 16.3431 4.33524C16.4486 4.22975 16.5078 4.08668 16.5078 3.93749C16.5078 3.78831 16.4486 3.64524 16.3431 3.53975C16.2376 3.43426 16.0945 3.375 15.9453 3.375H14.8203V2.25C14.8203 2.10081 14.7611 1.95774 14.6556 1.85225C14.5501 1.74676 14.407 1.6875 14.2578 1.6875C14.1087 1.6875 13.9656 1.74676 13.8601 1.85225C13.7546 1.95774 13.6953 2.10081 13.6953 2.25V3.375H12.5703C12.4212 3.375 12.2781 3.43426 12.1726 3.53975C12.0671 3.64524 12.0078 3.78831 12.0078 3.93749C12.0078 4.08668 12.0671 4.22975 12.1726 4.33524C12.2781 4.44073 12.4212 4.49999 12.5703 4.49999ZM15.7766 7.38281C15.7033 7.39308 15.6328 7.4179 15.5692 7.45581C15.5056 7.49372 15.4502 7.54396 15.4064 7.60357C15.3625 7.66318 15.3309 7.73096 15.3136 7.80293C15.2963 7.8749 15.2935 7.9496 15.3055 8.02265C15.356 8.34601 15.3818 8.67273 15.3828 9C15.3849 10.5141 14.8292 11.9759 13.8219 13.1062C13.3666 12.4531 12.7798 11.9023 12.0992 11.4891C11.3178 12.2377 10.2775 12.6556 9.19534 12.6556C8.11319 12.6556 7.07285 12.2377 6.29143 11.4891C5.61086 11.9023 5.02411 12.4531 4.56878 13.1062C3.77763 12.2145 3.26095 11.1131 3.08087 9.93464C2.90079 8.75618 3.06498 7.55079 3.5537 6.46343C4.04242 5.37607 4.83485 4.45304 5.8357 3.80535C6.83655 3.15766 8.0032 2.81289 9.19534 2.8125C9.52261 2.81352 9.84933 2.83937 10.1727 2.88984C10.3185 2.90982 10.4663 2.87187 10.5845 2.78412C10.7026 2.69637 10.7816 2.56581 10.8046 2.42046C10.8276 2.2751 10.7928 2.12652 10.7075 2.00658C10.6222 1.88665 10.4933 1.80491 10.3485 1.7789C9.96726 1.71675 9.58158 1.68618 9.19534 1.6875C7.72189 1.68801 6.28296 2.13363 5.06712 2.96597C3.85128 3.7983 2.91524 4.97853 2.38167 6.35197C1.8481 7.72542 1.74189 9.22802 2.07696 10.6629C2.41202 12.0977 3.17273 13.3979 4.2594 14.393L4.35081 14.4773C5.68763 15.6597 7.41068 16.3123 9.19534 16.3123C10.98 16.3123 12.7031 15.6597 14.0399 14.4773L14.1313 14.393C14.8809 13.7089 15.4795 12.8759 15.8887 11.9473C16.2979 11.0186 16.5088 10.0148 16.5078 9C16.5092 8.61376 16.4786 8.22807 16.4164 7.84687C16.4053 7.77419 16.3799 7.70444 16.3416 7.64166C16.3033 7.57888 16.253 7.52433 16.1935 7.48116C16.1339 7.43799 16.0665 7.40707 15.9949 7.39019C15.9233 7.3733 15.8491 7.37079 15.7766 7.38281Z" fill="white"/>
</svg>
